<svg xmlns="http://www.w3.org/2000/svg" width="241" height="64" viewBox="0 0 241 64">
    <g fill="none" fill-rule="evenodd" transform="translate(1 2)">
        <rect width="236.341" height="51.22" x="1.464" y="4.39" stroke="#476AAE" stroke-width="2.927" rx="4.39" transform="rotate(-2 119.634 30)"/>
        <path fill="#476AAE" fill-rule="nonzero" d="M57.206 25.5l.12-4.103 3.24-.113.223 6.407-4.113.144-.004-.103c.395-.503.505-1.208.534-2.232zm-1.496 3.804l6.434-.225.064 1.832 1.51-.053-.114-3.265-1.157.04-.273-7.84-6.363.222-.139 5.43c-.033 1.249-.22 2.008-.86 2.455l-.662.023.114 3.265 1.51-.053-.064-1.831zm12.268-.287c2.102-.073 3.333-1.494 3.253-3.775-.08-2.275-1.413-3.612-3.508-3.54-2.089.074-3.332 1.507-3.253 3.776.08 2.282 1.4 3.613 3.508 3.539zm-.046-1.337c-1.112.039-1.778-.787-1.83-2.259-.05-1.465.556-2.342 1.668-2.381 1.105-.039 1.771.794 1.822 2.26.052 1.47-.549 2.341-1.66 2.38zm6.794-2.065l2.444 2.94 1.935-.068-3.108-3.682 2.727-3.345-1.838.064-2.215 2.896-.354.013-.098-2.815-1.593.055.245 7.032 1.593-.056-.105-3.02.367-.014zm6.204 5.363c1.574-.055 2.306-.66 2.842-2.429l2.286-7.345-1.684.059-1.447 5.546-.11.004-1.837-5.431-1.748.06 2.76 6.976-.073.312c-.183.656-.553.926-1.228.95a3.14 3.14 0 0 1-.438-.01l.046 1.304c.103.016.534.007.63.004zm8.182-2.84l-.167-4.782.122-.005 2.09 4.387 1.144-.04 1.786-4.522.115-.004.168 4.782 1.529-.054-.245-7.03-1.993.069-1.92 4.912-.115.004-2.252-4.767-2.03.071.245 7.032 1.523-.054zm11.401-6.312c.958-.034 1.611.612 1.68 1.653l-3.31.115c.034-1.03.679-1.735 1.63-1.768zm1.772 3.914c-.214.53-.75.837-1.54.865-1.048.037-1.749-.672-1.828-1.84l-.003-.084 4.91-.172-.017-.514c-.078-2.217-1.326-3.506-3.331-3.436-2.038.071-3.255 1.536-3.176 3.798.08 2.263 1.374 3.588 3.444 3.516 1.658-.058 2.806-.896 3.05-2.185l-1.51.052zm7.728 1.667l1.594-.055-.246-7.031-1.593.055.096 2.777-2.975.104-.097-2.777-1.594.056.245 7.031 1.594-.056-.104-2.982 2.976-.104.104 2.982zm8.58-7.339l-5.927.207.045 1.273 2.166-.076.2 5.759 1.594-.056-.2-5.759 2.166-.075-.045-1.273zm9.345 6.714l1.595-.056-.246-7.031-6.1.213.246 7.03 1.594-.055-.201-5.759 2.911-.101.201 5.759zm6.503-.086c2.102-.073 3.333-1.493 3.253-3.775-.08-2.275-1.413-3.612-3.508-3.539-2.089.073-3.333 1.506-3.253 3.775.08 2.282 1.4 3.613 3.508 3.539zm-.046-1.337c-1.112.039-1.778-.787-1.83-2.259-.05-1.465.555-2.342 1.667-2.381 1.106-.039 1.772.794 1.823 2.26.051 1.47-.549 2.341-1.66 2.38zm9.297-.402l-3.034.106-.004-.116c.293-.447.43-1.134.462-1.901l.093-2.5 2.326-.081.157 4.492zm-3.722 3.238l-.064-1.831 5.039-.176.063 1.831 1.466-.05-.108-3.105-1.08.038-.202-5.76-5.29.186-.115 3.678c-.031.947-.22 1.79-.73 2.117l-.553.02.108 3.103 1.466-.05zm12.09-2.256l1.593-.055-.245-7.032-6.1.213.246 7.031 1.594-.055-.2-5.759 2.91-.102.202 5.76zm5.032-.176l2.831-4.79.11-.003.163 4.685 1.575-.055-.246-7.031-1.575.055-2.832 4.758-.109.003-.162-4.653-1.575.055.245 7.031 1.575-.055zm12.46-5.106c-.219-1.473-1.347-2.463-3.154-2.4-2.114.074-3.307 1.473-3.227 3.755.08 2.314 1.375 3.633 3.49 3.559 1.78-.062 2.85-1.09 2.973-2.569l-1.517.053c-.142.739-.68 1.15-1.51 1.18-1.086.037-1.772-.801-1.823-2.28-.051-1.458.569-2.323 1.661-2.361.875-.03 1.418.44 1.59 1.116l1.517-.053zm3.967 3.394c-.707.025-1.228-.311-1.248-.903-.02-.572.386-.907 1.278-.997l1.584-.158.02.56c.027.816-.67 1.464-1.634 1.498zm-.426 1.27c.92-.033 1.677-.458 2.045-1.153l.109-.004.033.964 1.537-.053-.168-4.801c-.052-1.492-1.099-2.337-2.904-2.273-1.672.058-2.807.889-2.892 2.134l1.504-.053c.131-.48.623-.755 1.356-.78.861-.03 1.338.339 1.361 1.027l.021.59-1.808.173c-1.707.163-2.639.93-2.594 2.202.045 1.285 1.044 2.074 2.4 2.027zm10.125-.47l1.594-.056-.245-7.03-1.594.055.097 2.776-2.976.104-.097-2.776-1.594.055.246 7.032 1.593-.056-.104-2.982 2.976-.104.104 2.982zM45.365 42.737l-1.523.053c.23 1.433 1.377 2.397 3.183 2.334 2.064-.072 3.332-1.532 3.253-3.795-.078-2.23-1.445-3.591-3.502-3.52-1.8.063-2.88 1.157-3.011 2.57l1.523-.053c.132-.648.667-1.15 1.529-1.18.925-.032 1.648.567 1.793 1.598l-2.815.099.04 1.137 2.834-.099c-.044 1.134-.707 1.865-1.69 1.9-.823.028-1.422-.343-1.614-1.044zm8.457-1.267l.087-2.494 2.063-.072.2 5.759 1.588-.056-.245-7.03-5.04.175-.102 3.678c-.03 1.172-.233 1.997-.914 2.02a1.563 1.563 0 0 1-.388-.031l.05 1.414c.09.029.272.068.536.058 1.626-.056 2.1-1.386 2.165-3.421zm8.552-2.937c.958-.034 1.611.613 1.68 1.653l-3.31.115c.034-1.03.68-1.735 1.63-1.768zm1.771 3.915c-.213.528-.749.837-1.54.864-1.047.037-1.747-.672-1.827-1.84l-.003-.084 4.91-.172-.017-.514c-.078-2.217-1.326-3.506-3.331-3.436-2.038.071-3.254 1.536-3.175 3.798.079 2.263 1.373 3.588 3.443 3.516 1.658-.058 2.806-.896 3.05-2.185l-1.51.053zm5.014-1.263l2.445 2.939 1.935-.068-3.108-3.681 2.727-3.345-1.838.064-2.215 2.896-.354.012-.098-2.815-1.594.056.246 7.031 1.593-.056-.105-3.02.366-.013zm10.407-4.379l-5.926.207.045 1.273 2.166-.076.201 5.759 1.594-.056-.201-5.759 2.165-.075-.044-1.273zm5.131-.295c-.963.034-1.763.544-2.14 1.355l-.11.004-.04-1.163-1.536.054.327 9.37 1.594-.055-.119-3.407.11-.004c.385.733 1.178 1.143 2.187 1.108 1.774-.062 2.831-1.489 2.753-3.732-.08-2.256-1.245-3.592-3.026-3.53zm-.295 5.924c-1.086.038-1.79-.806-1.846-2.213-.043-1.402.608-2.3 1.694-2.337 1.093-.039 1.784.793 1.834 2.213.05 1.42-.576 2.299-1.682 2.337zm7.999 1.104c2.102-.073 3.333-1.493 3.253-3.775-.08-2.275-1.413-3.612-3.509-3.539-2.088.073-3.332 1.507-3.252 3.775.079 2.282 1.4 3.613 3.508 3.54zm-.046-1.337c-1.113.04-1.778-.787-1.83-2.259-.05-1.465.555-2.342 1.667-2.38 1.106-.04 1.772.793 1.823 2.258.051 1.472-.549 2.343-1.66 2.381zm9.508.865l1.594-.055-.245-7.032-1.595.056.098 2.777-2.976.103-.097-2.776-1.594.056.246 7.03 1.593-.055-.104-2.982 2.976-.104.104 2.982zm8.028-.28l1.593-.056-.245-7.03-1.594.055.097 2.776-2.976.104-.097-2.776-1.594.055.246 7.032 1.594-.056-.104-2.982 2.976-.104.104 2.982zm6.502-.086c2.102-.073 3.333-1.493 3.254-3.775-.08-2.275-1.414-3.612-3.509-3.539-2.089.073-3.332 1.507-3.253 3.776.08 2.281 1.4 3.612 3.508 3.538zm-.046-1.336c-1.112.038-1.778-.788-1.83-2.26-.05-1.465.556-2.342 1.668-2.38 1.105-.04 1.771.793 1.823 2.259.05 1.471-.55 2.342-1.661 2.38zm6.514.969l2.831-4.79.109-.004.164 4.686 1.575-.055-.246-7.032-1.575.055-2.832 4.758-.11.004-.162-4.653-1.575.055.246 7.031 1.575-.055zm-1.157-10.262c.045 1.273 1.022 2.165 2.436 2.116 1.42-.05 2.326-1.008 2.281-2.28l-1.252.043c.01.688-.381 1.255-1.063 1.28-.668.022-1.112-.515-1.142-1.203l-1.26.044zm15.502 9.761l1.594-.056-.245-7.03-6.1.212.245 7.031 1.595-.055-.202-5.759 2.912-.102.201 5.76zm6.503-.085c2.101-.074 3.333-1.494 3.253-3.775-.08-2.276-1.414-3.613-3.509-3.54-2.089.074-3.332 1.507-3.253 3.776.08 2.281 1.4 3.612 3.509 3.539zm-.047-1.337c-1.112.039-1.778-.788-1.83-2.26-.05-1.465.556-2.342 1.668-2.38 1.105-.04 1.772.793 1.823 2.259.051 1.472-.549 2.342-1.661 2.38zm9.298-.402l-3.034.106-.004-.116c.293-.448.43-1.135.46-1.901l.094-2.5 2.326-.082.158 4.493zm-3.722 3.238l-.065-1.832 5.04-.176.063 1.832 1.466-.051-.109-3.104-1.08.037-.2-5.758-5.29.184-.117 3.679c-.03.947-.22 1.79-.73 2.116l-.552.02.108 3.104 1.466-.051zm12.089-2.256l1.594-.056-.246-7.031-6.1.213.247 7.031 1.593-.056-.2-5.758 2.91-.102.202 5.759zm5.033-.176l2.83-4.79.11-.004.163 4.686 1.575-.055-.245-7.032-1.575.055-2.832 4.758-.11.004-.162-4.653-1.575.055.246 7.031 1.575-.055zm12.459-5.107c-.218-1.472-1.347-2.462-3.153-2.4-2.115.074-3.307 1.474-3.227 3.756.08 2.313 1.374 3.632 3.489 3.558 1.78-.062 2.85-1.09 2.973-2.568l-1.517.053c-.141.739-.68 1.15-1.51 1.179-1.085.038-1.77-.8-1.823-2.279-.05-1.459.57-2.323 1.662-2.362.874-.03 1.418.44 1.59 1.116l1.516-.053zm4.264.862c.785-.028 1.309.424 1.334 1.143.025.714-.46 1.213-1.25 1.241l-1.202.042-.083-2.385 1.201-.041zm-2.667 3.754l2.988-.104c1.639-.057 2.653-1.052 2.6-2.556-.052-1.504-1.133-2.425-2.772-2.367l-1.395.048-.073-2.108-1.594.056.246 7.031zm13.122-.317c2.063-.072 3.288-1.479 3.208-3.773-.08-2.288-1.406-3.612-3.463-3.54-1.825.063-2.996 1.185-3.19 3.032l-1.117.04-.097-2.777-1.594.055.246 7.032 1.593-.056-.104-2.982 1.1-.038c.248 1.96 1.516 3.074 3.418 3.007zm-.053-1.336c-1.086.038-1.732-.783-1.784-2.26-.051-1.473.543-2.343 1.622-2.38 1.08-.038 1.733.788 1.785 2.26.05 1.478-.543 2.342-1.623 2.38z"/>
    </g>
</svg>
