<?xml version="1.0" encoding="utf-8"?>
<!-- Generator: Adobe Illustrator 24.0.1, SVG Export Plug-In . SVG Version: 6.00 Build 0)  -->
<svg version="1.1" id="Слой_1" xmlns="http://www.w3.org/2000/svg" xmlns:xlink="http://www.w3.org/1999/xlink" x="0px" y="0px"
	 viewBox="0 0 241 64" style="enable-background:new 0 0 241 64;" xml:space="preserve">
<style type="text/css">
	.st0{fill:none;stroke:#476AAE;stroke-width:2.927;}
	.st1{fill:#476AAE;}
</style>
<g transform="translate(1 2)">
	<path class="st0" d="M5,8.4l227.4-7.9c2.4-0.1,4.5,1.8,4.5,4.2l1.5,42.4c0.1,2.4-1.8,4.5-4.2,4.5L6.8,59.6
		c-2.4,0.1-4.5-1.8-4.5-4.2L0.8,12.9C0.7,10.5,2.6,8.5,5,8.4z"/>
</g>
<g>
	<path class="st1" d="M63.2,20.2l-3.3,0.1l-0.1-1.8l8.8-0.3l0.1,1.8l-3.4,0.1l0.3,9.9l-2.1,0.1L63.2,20.2z"/>
	<path class="st1" d="M69.7,17.5l2.2-0.1l0.2,5l0,0c0.2-0.4,0.6-0.8,1-1c0.4-0.3,0.9-0.4,1.4-0.4c1.4,0,3,0.9,3.1,3.6l0.2,5
		l-2.1,0.1l-0.2-4.7c0-1.2-0.5-2.1-1.7-2.1c-0.8,0-1.4,0.6-1.6,1.3c-0.1,0.2-0.1,0.4-0.1,0.6l0.2,5.1l-2.2,0.1L69.7,17.5z"/>
	<path class="st1" d="M81.5,25.8c0.1,1.5,1.3,2.1,2.7,2.1c1,0,1.7-0.2,2.3-0.5l0.4,1.5c-0.7,0.3-1.7,0.6-2.9,0.6
		c-2.7,0.1-4.4-1.5-4.5-4.1c-0.1-2.3,1.3-4.6,4-4.7c2.7-0.1,3.7,2.1,3.8,4c0,0.4,0,0.7,0,0.9L81.5,25.8z M85.1,24.2
		c0-0.8-0.4-2.1-1.8-2c-1.3,0-1.8,1.3-1.9,2.1L85.1,24.2z"/>
	<path class="st1" d="M100,16.5l0.3,10c0,0.9,0.1,1.8,0.2,2.4l-1.9,0.1l-0.1-1.3l0,0c-0.5,1-1.5,1.6-2.7,1.6c-2,0.1-3.7-1.6-3.8-4.2
		c-0.1-2.8,1.6-4.6,3.6-4.7c1.2,0,2,0.4,2.4,1l0,0l-0.2-4.8L100,16.5z M98.1,23.9c0-0.2,0-0.4-0.1-0.6c-0.2-0.8-0.9-1.5-1.9-1.4
		c-1.4,0-2.1,1.3-2,2.9c0.1,1.5,0.9,2.7,2.2,2.6c0.9,0,1.6-0.6,1.8-1.6c0-0.2,0.1-0.4,0-0.6L98.1,23.9z"/>
	<path class="st1" d="M110.6,24.1c0.1,3.1-2,4.6-4.2,4.7c-2.4,0.1-4.3-1.5-4.4-4.2c-0.1-2.8,1.7-4.5,4.2-4.6
		C108.8,19.8,110.6,21.6,110.6,24.1z M104.3,24.4c0.1,1.6,0.9,2.8,2.2,2.8c1.2,0,2-1.3,2-3c0-1.3-0.7-2.8-2.1-2.8
		C104.8,21.6,104.2,23,104.3,24.4z"/>
	<path class="st1" d="M118.8,27.9c-0.4,0.2-1.3,0.5-2.4,0.5c-2.6,0.1-4.4-1.5-4.5-4.2c-0.1-2.5,1.6-4.6,4.6-4.7
		c0.8,0,1.6,0.1,2.1,0.3l-0.3,1.6c-0.4-0.1-0.9-0.3-1.6-0.3c-1.6,0.1-2.6,1.3-2.5,2.8c0.1,1.7,1.2,2.7,2.7,2.6
		c0.7,0,1.3-0.2,1.7-0.4L118.8,27.9z"/>
	<path class="st1" d="M127.8,25.3c0,1,0.1,1.8,0.2,2.5l-1.9,0.1l-0.1-1.3l0,0c-0.3,0.6-1.1,1.5-2.7,1.6c-1.5,0.1-3-0.8-3.1-3.6
		l-0.2-5l2.1-0.1l0.2,4.6c0,1.4,0.5,2.3,1.7,2.3c0.9,0,1.4-0.7,1.6-1.2c0.1-0.2,0.1-0.4,0.1-0.7l-0.2-5.1l2.1-0.1L127.8,25.3z"/>
	<path class="st1" d="M130,21.8c0-1-0.1-1.8-0.2-2.5l1.8-0.1l0.1,1.2l0.1,0c0.4-0.7,1.1-1.5,2.6-1.5c1.1,0,2,0.6,2.4,1.5l0,0
		c0.3-0.5,0.6-0.8,1-1.1c0.5-0.3,1-0.5,1.7-0.6c1.4,0,2.9,0.9,3,3.6l0.2,5l-2.1,0.1l-0.2-4.7c0-1.4-0.6-2.2-1.6-2.2
		c-0.7,0-1.3,0.6-1.5,1.2c0,0.2-0.1,0.5-0.1,0.7l0.2,5.1l-2.1,0.1l-0.2-4.9c0-1.2-0.5-2-1.5-2c-0.8,0-1.3,0.7-1.5,1.3
		c-0.1,0.2-0.1,0.5-0.1,0.7l0.2,5l-2.1,0.1L130,21.8z"/>
	<path class="st1" d="M146.4,23.6c0.1,1.5,1.3,2.1,2.7,2.1c1,0,1.7-0.2,2.3-0.5l0.4,1.5c-0.7,0.3-1.7,0.6-2.9,0.6
		c-2.7,0.1-4.4-1.5-4.5-4.1c-0.1-2.3,1.3-4.6,4-4.7c2.7-0.1,3.7,2.1,3.8,4c0,0.4,0,0.7,0,0.9L146.4,23.6z M150,22
		c0-0.8-0.4-2.1-1.8-2c-1.3,0-1.8,1.3-1.9,2.1L150,22z"/>
	<path class="st1" d="M153.7,21c0-1-0.1-1.8-0.2-2.5l1.9-0.1l0.1,1.3l0.1,0c0.3-0.7,1.2-1.5,2.6-1.6c1.5-0.1,3,0.9,3.1,3.5l0.2,5
		l-2.1,0.1l-0.2-4.8c0-1.2-0.5-2.1-1.7-2.1c-0.9,0-1.4,0.7-1.6,1.3c-0.1,0.2-0.1,0.5-0.1,0.7l0.2,5l-2.2,0.1L153.7,21z"/>
	<path class="st1" d="M165.9,15.6l0.1,2.4l2-0.1l0.1,1.6l-2,0.1l0.1,3.7c0,1,0.3,1.6,1.1,1.5c0.4,0,0.6-0.1,0.8-0.1l0.1,1.6
		c-0.3,0.1-0.9,0.2-1.5,0.3c-0.8,0-1.5-0.2-1.9-0.6c-0.5-0.5-0.7-1.2-0.7-2.3l-0.1-4l-1.2,0l-0.1-1.6l1.2,0l-0.1-1.9L165.9,15.6z"/>
	<path class="st1" d="M175.4,15.4c0,0.6-0.4,1.2-1.2,1.2c-0.7,0-1.2-0.5-1.2-1.1c0-0.7,0.4-1.2,1.2-1.2
		C174.9,14.2,175.3,14.7,175.4,15.4z M173.5,26.3l-0.3-8.5l2.2-0.1l0.3,8.5L173.5,26.3z"/>
	<path class="st1" d="M177.8,24.2c0.5,0.3,1.4,0.6,2.2,0.5c0.9,0,1.3-0.4,1.3-1c0-0.6-0.4-0.9-1.4-1.2c-1.7-0.5-2.4-1.4-2.4-2.4
		c-0.1-1.5,1.1-2.7,3.1-2.8c0.9,0,1.8,0.2,2.3,0.4l-0.4,1.5c-0.4-0.2-1.1-0.5-1.8-0.4c-0.8,0-1.2,0.4-1.2,0.9c0,0.5,0.4,0.8,1.5,1.1
		c1.5,0.5,2.3,1.3,2.3,2.5c0.1,1.5-1.1,2.7-3.4,2.8c-1,0-2-0.2-2.6-0.5L177.8,24.2z"/>
	<path class="st1" d="M47.6,45c0.1,1.5,1.3,2.1,2.7,2.1c1,0,1.7-0.2,2.3-0.5l0.4,1.5c-0.7,0.3-1.7,0.6-2.9,0.6
		c-2.7,0.1-4.4-1.5-4.5-4.1c-0.1-2.3,1.3-4.6,4-4.7c2.7-0.1,3.7,2.1,3.8,4c0,0.4,0,0.7,0,0.9L47.6,45z M51.3,43.4
		c0-0.8-0.4-2.1-1.8-2c-1.3,0-1.8,1.3-1.9,2.1L51.3,43.4z"/>
	<path class="st1" d="M54.7,36l2.2-0.1l0.4,12.3l-2.2,0.1L54.7,36z"/>
	<path class="st1" d="M61,44.5c0.1,1.5,1.3,2.1,2.7,2.1c1,0,1.7-0.2,2.3-0.5l0.4,1.5c-0.7,0.3-1.7,0.6-2.9,0.6
		c-2.7,0.1-4.4-1.5-4.5-4.1c-0.1-2.3,1.3-4.6,4-4.7c2.7-0.1,3.7,2.1,3.8,4c0,0.4,0,0.7,0,0.9L61,44.5z M64.7,42.9
		c0-0.8-0.4-2.1-1.8-2C61.5,41,61,42.2,61,43L64.7,42.9z"/>
	<path class="st1" d="M74.8,47.4c-0.4,0.2-1.3,0.5-2.4,0.5c-2.6,0.1-4.4-1.5-4.5-4.2c-0.1-2.5,1.6-4.6,4.6-4.7
		c0.8,0,1.6,0.1,2.1,0.3l-0.3,1.6c-0.4-0.1-0.9-0.3-1.6-0.3c-1.6,0.1-2.6,1.3-2.5,2.8c0.1,1.7,1.2,2.7,2.7,2.6
		c0.7,0,1.3-0.2,1.7-0.4L74.8,47.4z"/>
	<path class="st1" d="M78.7,36.7l0.1,2.4l2-0.1l0.1,1.6l-2,0.1l0.1,3.7c0,1,0.3,1.6,1.1,1.5c0.4,0,0.6-0.1,0.8-0.1l0.1,1.6
		c-0.3,0.1-0.9,0.2-1.5,0.3c-0.8,0-1.5-0.2-1.9-0.6c-0.5-0.5-0.7-1.2-0.7-2.3l-0.1-4l-1.2,0l-0.1-1.6l1.2,0l-0.1-1.9L78.7,36.7z"/>
	<path class="st1" d="M82.6,41.7c0-1.1-0.1-2-0.2-2.7l1.9-0.1l0.1,1.6l0.1,0c0.4-1.2,1.3-1.9,2.2-1.9c0.2,0,0.3,0,0.5,0l0.1,2
		c-0.2,0-0.4-0.1-0.6,0c-1,0-1.7,0.7-1.9,1.7c0,0.2-0.1,0.4,0,0.7l0.2,4.4l-2.1,0.1L82.6,41.7z"/>
	<path class="st1" d="M96.7,42.6c0.1,3.1-2,4.6-4.2,4.7c-2.4,0.1-4.3-1.5-4.4-4.2c-0.1-2.8,1.7-4.5,4.2-4.6
		C94.9,38.3,96.6,40.1,96.7,42.6z M90.3,42.9c0.1,1.6,0.9,2.8,2.2,2.8c1.2,0,2-1.3,2-3c0-1.3-0.7-2.8-2.1-2.8
		C90.8,40,90.3,41.5,90.3,42.9z"/>
	<path class="st1" d="M98.4,40.9c0-1-0.1-1.8-0.2-2.5l1.9-0.1l0.1,1.3l0.1,0c0.3-0.7,1.2-1.5,2.6-1.6c1.5-0.1,3,0.9,3.1,3.5l0.2,5
		l-2.1,0.1l-0.2-4.8c0-1.2-0.5-2.1-1.7-2.1c-0.9,0-1.4,0.7-1.6,1.3c-0.1,0.2-0.1,0.5-0.1,0.7l0.2,5l-2.2,0.1L98.4,40.9z"/>
	<path class="st1" d="M110.4,35.6c0,0.6-0.4,1.2-1.2,1.2c-0.7,0-1.2-0.5-1.2-1.1c0-0.7,0.4-1.2,1.2-1.2
		C109.9,34.5,110.4,35,110.4,35.6z M108.5,46.5l-0.3-8.5l2.2-0.1l0.3,8.5L108.5,46.5z"/>
	<path class="st1" d="M119.2,45.9c-0.4,0.2-1.3,0.5-2.4,0.5c-2.6,0.1-4.4-1.5-4.5-4.2c-0.1-2.5,1.6-4.6,4.6-4.7
		c0.8,0,1.6,0.1,2.1,0.3l-0.3,1.6c-0.4-0.1-0.9-0.3-1.6-0.3c-1.6,0.1-2.6,1.3-2.5,2.8c0.1,1.7,1.2,2.7,2.7,2.6
		c0.7,0,1.3-0.2,1.7-0.4L119.2,45.9z"/>
	<path class="st1" d="M125.5,45.9l-0.2-0.9l-0.1,0c-0.5,0.7-1.4,1.2-2.5,1.2c-1.7,0.1-2.7-1.1-2.7-2.4c-0.1-2.1,1.8-3.3,4.9-3.4
		l0-0.1c0-0.6-0.3-1.5-1.8-1.4c-0.8,0-1.7,0.3-2.3,0.7l-0.5-1.4c0.6-0.4,1.7-0.8,3-0.9c2.7-0.1,3.6,1.6,3.6,3.4l0.1,3.1
		c0,0.8,0.1,1.5,0.2,2L125.5,45.9z M125.1,41.8c-1.5,0-2.9,0.4-2.9,1.7c0,0.8,0.6,1.2,1.3,1.2c0.9,0,1.5-0.6,1.6-1.2
		c0-0.2,0.1-0.3,0.1-0.5L125.1,41.8z"/>
	<path class="st1" d="M129.2,33.5l2.2-0.1l0.4,12.3l-2.2,0.1L129.2,33.5z"/>
	<path class="st1" d="M133.7,33.3l2.2-0.1l0.4,12.3l-2.2,0.1L133.7,33.3z"/>
	<path class="st1" d="M139.6,37l1.7,4.5c0.2,0.5,0.4,1.2,0.5,1.6l0.1,0c0.1-0.5,0.3-1.1,0.4-1.7l1.2-4.6l2.3-0.1l-1.9,5.8
		c-1.1,3.2-1.8,4.6-2.8,5.5c-0.8,0.8-1.7,1.1-2.2,1.2l-0.5-1.8c0.4-0.1,0.8-0.3,1.2-0.6c0.4-0.3,0.8-0.8,1.1-1.4
		c0.1-0.2,0.1-0.3,0.1-0.4c0-0.1,0-0.2-0.1-0.4l-3.4-7.7L139.6,37z"/>
	<path class="st1" d="M150.7,43.1c0.5,0.3,1.4,0.6,2.2,0.5c0.9,0,1.3-0.4,1.3-1c0-0.6-0.4-0.9-1.4-1.2c-1.7-0.5-2.4-1.4-2.4-2.4
		c-0.1-1.5,1.1-2.7,3.1-2.8c0.9,0,1.8,0.2,2.3,0.4l-0.4,1.5c-0.4-0.2-1.1-0.5-1.8-0.4c-0.8,0-1.2,0.4-1.2,0.9c0,0.5,0.4,0.8,1.5,1.1
		c1.5,0.5,2.3,1.3,2.3,2.5c0.1,1.5-1.1,2.7-3.4,2.8c-1,0-2-0.2-2.6-0.5L150.7,43.1z"/>
	<path class="st1" d="M160,33.9c0,0.6-0.4,1.2-1.2,1.2c-0.7,0-1.2-0.5-1.2-1.1c0-0.7,0.4-1.2,1.2-1.2
		C159.5,32.8,159.9,33.3,160,33.9z M158.1,44.8l-0.3-8.5l2.2-0.1l0.3,8.5L158.1,44.8z"/>
	<path class="st1" d="M170,35.9c0,0.6,0,1.3,0,2.4l0.2,4.8c0.1,1.8-0.3,3.1-1.1,3.9c-0.9,0.8-2.1,1.1-3.2,1.1c-1.1,0-2.2-0.1-3-0.6
		l0.4-1.6c0.5,0.3,1.5,0.6,2.5,0.6c1.4,0,2.4-0.8,2.3-2.6l0-0.7l0,0c-0.5,0.8-1.3,1.3-2.4,1.3c-2.1,0.1-3.7-1.6-3.7-4
		c-0.1-2.8,1.7-4.5,3.7-4.6c1.3,0,2.1,0.6,2.5,1.2l0,0l0-1.1L170,35.9z M167.9,39.4c0-0.2,0-0.4-0.1-0.6c-0.3-0.8-0.9-1.3-1.8-1.3
		c-1.2,0-2.1,1.1-2,2.8c0,1.4,0.8,2.6,2.2,2.5c0.8,0,1.5-0.6,1.7-1.3c0-0.2,0.1-0.5,0.1-0.8L167.9,39.4z"/>
	<path class="st1" d="M172.2,38.4c0-1-0.1-1.8-0.2-2.5l1.9-0.1l0.1,1.3l0.1,0c0.3-0.7,1.2-1.5,2.6-1.6c1.5-0.1,3,0.9,3.1,3.5l0.2,5
		l-2.1,0.1l-0.2-4.8c0-1.2-0.5-2.1-1.7-2.1c-0.9,0-1.4,0.7-1.6,1.3c-0.1,0.2-0.1,0.5-0.1,0.7l0.2,5l-2.2,0.1L172.2,38.4z"/>
	<path class="st1" d="M183.7,40.3c0.1,1.5,1.3,2.1,2.7,2.1c1,0,1.7-0.2,2.3-0.5l0.4,1.5c-0.7,0.3-1.7,0.6-2.9,0.6
		c-2.7,0.1-4.4-1.5-4.5-4.1c-0.1-2.3,1.3-4.6,4-4.7c2.7-0.1,3.7,2.1,3.8,4c0,0.4,0,0.7,0,0.9L183.7,40.3z M187.4,38.7
		c0-0.8-0.4-2.1-1.8-2c-1.3,0-1.8,1.3-1.9,2.1L187.4,38.7z"/>
	<path class="st1" d="M198.7,31.1l0.3,10c0,0.9,0.1,1.8,0.2,2.4l-1.9,0.1l-0.1-1.3l0,0c-0.5,1-1.5,1.6-2.7,1.6
		c-2,0.1-3.7-1.6-3.8-4.2c-0.1-2.8,1.6-4.6,3.6-4.7c1.2,0,2,0.4,2.4,1l0,0l-0.2-4.8L198.7,31.1z M196.8,38.5c0-0.2,0-0.4-0.1-0.6
		c-0.2-0.8-0.9-1.5-1.9-1.4c-1.4,0-2.1,1.3-2,2.9c0.1,1.5,0.9,2.7,2.2,2.6c0.9,0,1.6-0.6,1.8-1.6c0-0.2,0.1-0.4,0-0.6L196.8,38.5z"
		/>
</g>
</svg>
